<svg xmlns="http://www.w3.org/2000/svg" viewBox="0 0 200 200"><path fill="#fff" d="M 0.00,0.00 Q 100.00,0.00 200.00,0.00 Q 200.00,100.00 200.00,200.00 Q 100.00,200.00 0.00,200.00 Q 0.00,100.00 0.00,0.00 ZM 22.00,71.59 A 0.59 0.59 0.0 0 0 21.41,71.00 L 10.59,71.00 A 0.59 0.59 0.0 0 0 10.00,71.59 L 10.00,128.41 A 0.59 0.59 0.0 0 0 10.59,129.00 L 21.41,129.00 A 0.59 0.59 0.0 0 0 22.00,128.41 L 22.00,71.59 ZM 116.39,105.02 Q 117.04,106.71 115.88,107.73 Q 115.06,108.45 113.32,108.67 Q 108.41,109.28 103.98,106.43 A 1.72,1.72 39.3 0 0 101.85,106.64 Q 98.68,109.72 100.53,112.57 Q 101.71,114.39 104.72,115.44 Q 110.25,117.37 116.81,116.31 Q 121.23,115.60 123.94,112.97 Q 126.68,110.31 126.89,106.23 Q 127.14,101.16 122.94,98.06 Q 119.79,95.75 113.51,93.80 Q 111.91,93.30 111.21,92.86 Q 109.01,91.49 110.83,90.00 Q 111.79,89.22 113.39,89.02 Q 118.06,88.45 122.37,90.47 A 0.79,0.73 35.8 0 0 123.20,90.37 Q 124.99,88.81 125.02,86.66 Q 125.06,84.55 123.11,83.11 Q 120.54,81.22 116.75,81.00 Q 112.91,80.78 109.71,81.28 Q 105.70,81.90 103.33,83.85 Q 100.51,86.18 100.01,89.93 Q 99.55,93.43 101.29,96.30 Q 103.19,99.45 107.00,100.75 Q 111.93,102.43 115.73,104.33 A 1.39,1.16 6.5 0 1 116.39,105.02 ZM 72.09,95.58 Q 72.07,93.64 72.81,95.42 Q 76.17,103.60 80.34,111.36 Q 81.93,114.31 84.00,115.38 Q 88.38,117.64 93.26,114.93 A 0.85,0.84 75.7 0 0 93.69,114.19 L 93.68,84.87 Q 93.68,82.35 91.23,81.66 Q 88.03,80.77 84.79,81.67 A 0.66,0.66 81.5 0 0 84.31,82.32 L 84.64,101.31 Q 84.68,103.60 83.74,101.52 Q 79.93,93.16 76.00,85.50 Q 73.48,80.58 67.95,81.38 Q 65.46,81.75 64.55,82.12 Q 62.48,82.96 62.63,85.55 Q 62.74,87.37 62.74,87.44 Q 62.60,99.36 62.95,111.28 Q 63.01,113.56 63.69,114.58 Q 64.80,116.26 67.10,116.15 Q 68.03,116.11 69.42,116.12 Q 70.63,116.13 71.73,115.66 A 0.80,0.79 78.1 0 0 72.20,114.93 L 72.09,95.58 ZM 180.82,89.57 L 187.36,89.31 Q 189.38,89.23 189.74,87.08 Q 190.17,84.44 189.30,82.14 A 0.99,0.98 79.7 0 0 188.38,81.50 Q 177.00,81.50 166.25,81.31 Q 159.55,81.19 161.44,88.48 A 1.36,1.35 -7.1 0 0 162.76,89.50 L 169.59,89.50 A 0.67,0.67 -89.6 0 1 170.26,90.18 Q 170.09,101.08 170.44,111.28 Q 170.51,113.54 171.23,114.55 Q 172.35,116.12 174.56,116.19 Q 176.75,116.26 179.70,115.77 A 0.59,0.58 85.4 0 0 180.19,115.19 L 180.31,90.06 A 0.53,0.49 -1.2 0 1 180.82,89.57 ZM 42.06,102.30 Q 45.17,102.22 48.28,102.24 Q 48.37,102.24 50.21,102.34 Q 56.20,102.66 54.63,96.08 A 1.76,1.75 -6.5 0 0 52.93,94.74 L 42.07,94.70 A 0.66,0.48 0.4 0 1 41.41,94.21 L 41.51,90.43 A 1.19,1.04 2.8 0 1 42.77,89.43 Q 49.09,89.86 54.44,89.02 A 1.42,1.30 13.8 0 0 55.28,88.56 Q 57.68,85.74 55.82,82.37 A 0.93,0.89 -12.2 0 0 55.07,81.91 Q 46.02,81.48 36.97,81.91 Q 34.73,82.02 33.71,82.74 Q 32.14,83.84 32.00,86.00 Q 31.20,98.13 32.12,111.41 Q 32.27,113.70 33.35,114.71 Q 34.76,116.03 37.00,116.02 Q 45.13,116.00 53.90,116.00 A 2.60,2.60 -76.6 0 0 56.22,114.57 Q 57.63,111.76 55.94,108.74 A 0.87,0.84 -14.0 0 0 55.19,108.31 L 42.07,108.19 A 0.64,0.61 -5.5 0 1 41.45,107.70 Q 40.94,105.25 41.45,102.80 A 0.64,0.62 5.1 0 1 42.06,102.30 ZM 142.04,94.19 L 142.02,90.11 A 0.65,0.63 0.4 0 1 142.69,89.47 Q 147.89,89.64 152.56,89.39 Q 155.50,89.24 156.48,87.92 Q 157.80,86.16 156.74,82.97 A 1.76,1.75 81.5 0 0 155.12,81.77 Q 145.94,81.59 137.67,81.92 Q 135.27,82.01 134.12,82.99 Q 132.50,84.39 132.50,86.75 Q 132.50,98.63 132.65,110.50 Q 132.72,116.00 138.75,116.00 Q 146.00,116.00 153.24,116.19 Q 157.35,116.30 157.25,112.26 Q 157.21,110.65 157.02,109.52 A 1.59,1.53 -4.5 0 0 155.47,108.25 L 142.68,108.09 A 0.57,0.52 0.6 0 1 142.12,107.57 L 142.07,102.91 A 0.81,0.70 -0.8 0 1 142.86,102.21 L 153.70,101.99 A 1.13,1.05 -70.8 0 0 154.51,101.56 Q 156.25,99.31 155.02,95.53 A 1.14,1.12 -8.8 0 0 153.94,94.75 L 142.56,94.70 A 0.53,0.51 0.6 0 1 142.04,94.19 Z"/><rect fill="#022b4d" x="10.00" y="71.00" width="12.00" height="58.00" rx="0.59"/><path fill="#062f4e" d="M 115.73,104.33 Q 111.93,102.43 107.00,100.75 Q 103.19,99.45 101.29,96.30 Q 99.55,93.43 100.01,89.93 Q 100.51,86.18 103.33,83.85 Q 105.70,81.90 109.71,81.28 Q 112.91,80.78 116.75,81.00 Q 120.54,81.22 123.11,83.11 Q 125.06,84.55 125.02,86.66 Q 124.99,88.81 123.20,90.37 A 0.79,0.73 35.8 0 1 122.37,90.47 Q 118.06,88.45 113.39,89.02 Q 111.79,89.22 110.83,90.00 Q 109.01,91.49 111.21,92.86 Q 111.91,93.30 113.51,93.80 Q 119.79,95.75 122.94,98.06 Q 127.14,101.16 126.89,106.23 Q 126.68,110.31 123.94,112.97 Q 121.23,115.60 116.81,116.31 Q 110.25,117.37 104.72,115.44 Q 101.71,114.39 100.53,112.57 Q 98.68,109.72 101.85,106.64 A 1.72,1.72 39.3 0 1 103.98,106.43 Q 108.41,109.28 113.32,108.67 Q 115.06,108.45 115.88,107.73 Q 117.04,106.71 116.39,105.02 A 1.39,1.16 6.5 0 0 115.73,104.33 Z"/><path fill="#062f4e" d="M 72.09,95.58 L 72.20,114.93 A 0.80,0.79 78.1 0 1 71.73,115.66 Q 70.63,116.13 69.42,116.12 Q 68.03,116.11 67.10,116.15 Q 64.80,116.26 63.69,114.58 Q 63.01,113.56 62.95,111.28 Q 62.60,99.36 62.74,87.44 Q 62.74,87.37 62.63,85.55 Q 62.48,82.96 64.55,82.12 Q 65.46,81.75 67.95,81.38 Q 73.48,80.58 76.00,85.50 Q 79.93,93.16 83.74,101.52 Q 84.68,103.60 84.64,101.31 L 84.31,82.32 A 0.66,0.66 81.5 0 1 84.79,81.67 Q 88.03,80.77 91.23,81.66 Q 93.68,82.35 93.68,84.87 L 93.69,114.19 A 0.85,0.84 75.7 0 1 93.26,114.93 Q 88.38,117.64 84.00,115.38 Q 81.93,114.31 80.34,111.36 Q 76.17,103.60 72.81,95.42 Q 72.07,93.64 72.09,95.58 Z"/><path fill="#062f4e" d="M 180.31,90.06 L 180.19,115.19 A 0.59,0.58 85.4 0 1 179.70,115.77 Q 176.75,116.26 174.56,116.19 Q 172.35,116.12 171.23,114.55 Q 170.51,113.54 170.44,111.28 Q 170.09,101.08 170.26,90.18 A 0.67,0.67 -89.6 0 0 169.59,89.50 L 162.76,89.50 A 1.36,1.35 -7.1 0 1 161.44,88.48 Q 159.55,81.19 166.25,81.31 Q 177.00,81.50 188.38,81.50 A 0.99,0.98 79.7 0 1 189.30,82.14 Q 190.17,84.44 189.74,87.08 Q 189.38,89.23 187.36,89.31 L 180.82,89.57 A 0.53,0.49 -1.2 0 0 180.31,90.06 Z"/><path fill="#062f4e" d="M 41.45,102.80 Q 40.94,105.25 41.45,107.70 A 0.64,0.61 -5.5 0 0 42.07,108.19 L 55.19,108.31 A 0.87,0.84 -14.0 0 1 55.94,108.74 Q 57.63,111.76 56.22,114.57 A 2.60,2.60 -76.6 0 1 53.90,116.00 Q 45.13,116.00 37.00,116.02 Q 34.76,116.03 33.35,114.71 Q 32.27,113.70 32.12,111.41 Q 31.20,98.13 32.00,86.00 Q 32.14,83.84 33.71,82.74 Q 34.73,82.02 36.97,81.91 Q 46.02,81.48 55.07,81.91 A 0.93,0.89 -12.2 0 1 55.82,82.37 Q 57.68,85.74 55.28,88.56 A 1.42,1.30 13.8 0 1 54.44,89.02 Q 49.09,89.86 42.77,89.43 A 1.19,1.04 2.8 0 0 41.51,90.43 L 41.41,94.21 A 0.66,0.48 0.4 0 0 42.07,94.70 L 52.93,94.74 A 1.76,1.75 -6.5 0 1 54.63,96.08 Q 56.20,102.66 50.21,102.34 Q 48.37,102.24 48.28,102.24 Q 45.17,102.22 42.06,102.30 A 0.64,0.62 5.1 0 0 41.45,102.80 Z"/><path fill="#062f4e" d="M 142.56,94.70 L 153.94,94.75 A 1.14,1.12 -8.8 0 1 155.02,95.53 Q 156.25,99.31 154.51,101.56 A 1.13,1.05 -70.8 0 1 153.70,101.99 L 142.86,102.21 A 0.81,0.70 -0.8 0 0 142.07,102.91 L 142.12,107.57 A 0.57,0.52 0.6 0 0 142.68,108.09 L 155.47,108.25 A 1.59,1.53 -4.5 0 1 157.02,109.52 Q 157.21,110.65 157.25,112.26 Q 157.35,116.30 153.24,116.19 Q 146.00,116.00 138.75,116.00 Q 132.72,116.00 132.65,110.50 Q 132.50,98.63 132.50,86.75 Q 132.50,84.39 134.12,82.99 Q 135.27,82.01 137.67,81.92 Q 145.94,81.59 155.12,81.77 A 1.76,1.75 81.5 0 1 156.74,82.97 Q 157.80,86.16 156.48,87.92 Q 155.50,89.24 152.56,89.39 Q 147.89,89.64 142.69,89.47 A 0.65,0.63 0.4 0 0 142.02,90.11 L 142.04,94.19 A 0.53,0.51 0.6 0 0 142.56,94.70 Z"/></svg>