<!-- icon666.com - MILLIONS vector ICONS FREE --><svg id="Capa_1" enable-background="new 0 0 512.039 512.039" viewBox="0 0 512.039 512.039" xmlns="http://www.w3.org/2000/svg"><g><path d="m356.244 192.242 13.467-4.511-32.34-145.147c-2.267-10.174-12.146-16.757-22.409-14.932l-17.893 3.182c-27.166 4.831-54.972 4.832-82.139.003l-17.931-3.187c-10.262-1.824-20.141 4.759-22.407 14.933l-32.341 145.148 13.465 4.511c64.66 21.664 135.874 21.664 200.528 0z" fill="#f1f1f4"></path><path d="m330.64 305.96c0-48.01 38.92-86.93 86.93-86.93 31.763 0 59.548 17.036 74.715 42.469 7.928-6.762 12.215-13.982 12.215-21.48 0-27.033-55.709-50.443-136.913-61.822l2.125 9.535-13.468 4.511c-64.655 21.663-135.868 21.663-200.528 0l-13.465-4.511 2.123-9.529c-81.183 11.379-136.874 34.787-136.874 61.815 0 17.54 23.454 33.555 62.108 45.748 40.221 12.688 78.196 32.065 110.762 58.864 19.228 15.823 46.01 25.638 75.631 25.638s56.403-9.815 75.631-25.638c1.944-1.6 3.907-3.172 5.889-4.719-4.431-10.431-6.881-21.905-6.881-33.951z" fill="#f1f1f4"></path><circle cx="417.57" cy="305.96" fill="#c6c1c8" r="86.93"></circle><circle cx="417.57" cy="305.96" fill="#ddeff1" r="61.376"></circle><path d="m423.133 244.833c9.83 10.885 15.813 25.308 15.813 41.127 0 33.897-27.479 61.376-61.376 61.376-1.874 0-3.728-.085-5.559-.249 11.232 12.435 27.483 20.249 45.559 20.249 33.897 0 61.376-27.479 61.376-61.376 0-32.022-24.523-58.316-55.813-61.127z" fill="#bee2e4"></path><path d="m470.543 274.944c-10.658-18.164-30.392-30.36-52.974-30.36-33.897 0-61.376 27.479-61.376 61.376 0 6.489 1.007 12.742 2.873 18.613 25.754-16.696 53.94-29.537 83.325-38.806 10.58-3.337 20.02-6.961 28.152-10.823z" fill="#fff"></path><path d="m423.133 244.833c9.83 10.884 15.813 25.308 15.813 41.127 0 .306-.002.611-.007.915 1.149-.375 2.3-.745 3.453-1.108 10.579-3.337 20.019-6.96 28.151-10.823-9.772-16.656-27.176-28.293-47.41-30.111z" fill="#f1f1f4"></path><path d="m342.64 402.577-21.687-21.687c-1.149-1.149-3.013-1.149-4.162 0l-77.098 77.098c-1.149 1.149-1.149 3.013 0 4.162l21.687 21.687c1.149 1.149 3.013 1.149 4.162 0l77.098-77.098c1.15-1.15 1.15-3.013 0-4.162z" fill="#665e66"></path><path d="m347.96 358.038-24.929 24.929 17.533 17.533 24.929-24.929c-6.646-4.98-12.554-10.888-17.533-17.533z" fill="#afaab4"></path><path d="m378.723 228.172-9.011-40.441-13.468 4.511c-64.655 21.663-135.868 21.663-200.528 0l-13.465-4.511-10.056 45.13c-.683 3.068 1.061 6.156 4.041 7.154l3.125 1.047c69.482 23.281 144.193 25.187 214.532 5.719 7.06-7.593 15.463-13.922 24.83-18.609z" fill="#c6c1c8"></path><path d="m369.712 187.731-13.468 4.511c-2.504.839-5.017 1.645-7.54 2.419-.182 2.404-1.778 4.553-4.17 5.354l-3.125 1.047c-66.03 22.124-136.781 24.944-204.014 8.462l-5.2 23.337c-.683 3.068 1.061 6.156 4.041 7.154l3.125 1.047c69.482 23.281 144.193 25.187 214.532 5.719 7.06-7.594 15.463-13.922 24.83-18.609z" fill="#afaab4"></path><path d="m337.371 42.584c-2.267-10.174-12.146-16.757-22.409-14.932l-3.076.547 26.633 119.532 10.056 45.13c.135.605.175 1.21.13 1.8 2.523-.774 5.036-1.58 7.54-2.419l13.468-4.511z" fill="#dfdde2"></path><path d="m186.661 166.205c1.054.127 2.109.249 3.165.365-1.056-.117-2.111-.238-3.165-.365z" fill="#dfdde2"></path><path d="m469.53 196.379c-23.777-10.521-56.799-19.09-95.749-24.867l-29.09-130.56c-3.15-14.134-16.789-23.223-31.043-20.685l-17.892 3.183c-26.385 4.69-53.138 4.692-79.515.002l-17.931-3.186c-14.261-2.543-27.892 6.551-31.04 20.686l-7.523 33.769c-.901 4.043 1.646 8.051 5.689 8.951 4.041.907 8.05-1.646 8.951-5.689l7.523-33.769c1.397-6.271 7.453-10.305 13.774-9.179l17.931 3.186c28.12 4.999 56.64 4.998 84.766-.003l17.892-3.183c6.329-1.116 12.379 2.909 13.776 9.18 17.598 78.98 12.745 57.203 30.871 138.551l-7.061 2.365c-63.118 21.148-132.642 21.148-195.762 0l-7.059-2.365c23.606-105.949 10.284-46.153 15.626-70.13.901-4.043-1.646-8.051-5.689-8.951-4.043-.898-8.051 1.646-8.951 5.689l-13.846 62.143c-38.939 5.777-71.952 14.346-95.722 24.867-28.171 12.469-42.456 27.149-42.456 43.635 0 20.709 23.29 39.002 67.352 52.9 41.292 13.025 77.713 32.372 108.252 57.502 21.43 17.635 49.981 27.347 80.396 27.347 29.724 0 57.668-9.276 78.926-26.157 1.045 1.885 2.153 3.73 3.32 5.533l-15.96 15.96c-3.659-1.259-7.883-.432-10.799 2.483l-77.098 77.098c-1.972 1.973-3.059 4.596-3.059 7.385s1.087 5.412 3.06 7.385l21.687 21.687c1.973 1.972 4.596 3.059 7.385 3.059s5.412-1.087 7.385-3.059l77.098-77.098c2.948-2.949 3.741-7.178 2.488-10.804l15.954-15.955c14.756 9.554 32.334 15.106 51.184 15.106 71.034 0 115.868-75.469 84.068-137.413 6.881-7.214 10.362-14.916 10.362-22.959-.001-16.488-14.29-31.17-42.471-43.64zm27.47 43.64c0 3.118-1.233 6.337-3.677 9.623-17.229-23.115-44.773-38.112-75.753-38.112-11.792 0-23.087 2.173-33.504 6.139l-6.784-30.447c82.16 12.946 119.718 36.113 119.718 52.797zm-170.135 98.82c-18.752 15.431-43.919 23.929-70.865 23.929s-52.113-8.498-70.865-23.929c-32.029-26.356-70.139-46.619-113.271-60.225-35.606-11.232-56.864-25.66-56.864-38.595 0-16.68 37.546-39.843 119.68-52.792l-9.805 44.003c-1.523 6.837 2.336 13.671 8.979 15.897 2.458.708 29.979 11.146 69.635 16.757 4.08.581 7.895-2.257 8.477-6.375.581-4.102-2.273-7.896-6.375-8.477-21.638-3.062-43.119-8.137-63.846-15.081l-1.961-.657 7.978-35.808 5.573 1.867c66.185 22.173 139.089 22.183 205.293 0l5.575-1.868 5.976 26.82c-7.433 4.331-14.225 9.648-20.194 15.77-35.637 9.654-72.404 13.756-109.322 12.179-4.099-.182-7.637 3.035-7.812 7.174-.177 4.139 3.035 7.636 7.174 7.812 32.267 1.374 64.327-1.409 95.636-8.23-7.962 13.837-12.52 29.871-12.52 46.95 0 11.043 1.906 21.649 5.405 31.507-.566.457-1.126.915-1.681 1.372zm-63.403 136.472-15.243-15.242 70.653-70.653 15.243 15.242zm77.101-85.419-6.925-6.925 13.818-13.818c2.188 2.425 4.5 4.737 6.925 6.925zm77.007-4.502c-43.798 0-79.431-35.632-79.431-79.43s35.633-79.431 79.431-79.431 79.43 35.633 79.43 79.431-35.632 79.43-79.43 79.43z"></path><path d="m441.793 241.467c-3.877-1.458-8.201.505-9.658 4.383-1.457 3.877.505 8.201 4.383 9.658 9.015 3.387 16.752 9.088 22.637 16.269-5.787 2.382-12.151 4.671-19.018 6.837-27.34 8.623-52.867 20.034-76.037 33.974-3.44-27.925 15.356-53.446 41.879-59.256 4.047-.887 6.608-4.885 5.722-8.931s-4.883-6.604-8.931-5.722c-15.102 3.308-28.822 11.767-38.635 23.818-9.759 11.985-15.443 27.333-15.443 43.537 0 38.323 31.358 68.801 68.878 68.801 37.978 0 68.875-30.897 68.875-68.876 0-28.565-17.97-54.467-44.652-64.492zm-24.223 118.369c-22.002 0-40.966-13.258-49.323-32.204 23.095-14.329 48.767-25.995 76.402-34.713 8.131-2.565 15.634-5.307 22.398-8.185 2.844 6.593 4.399 13.796 4.399 21.226-.001 29.707-24.169 53.876-53.876 53.876z"></path></g></svg>